<?xml version="1.0" encoding="UTF-8" standalone="no"?>
<svg
   xmlns:dc="http://purl.org/dc/elements/1.1/"
   xmlns:cc="http://creativecommons.org/ns#"
   xmlns:rdf="http://www.w3.org/1999/02/22-rdf-syntax-ns#"
   xmlns:svg="http://www.w3.org/2000/svg"
   xmlns="http://www.w3.org/2000/svg"
   xmlns:sodipodi="http://sodipodi.sourceforge.net/DTD/sodipodi-0.dtd"
   xmlns:inkscape="http://www.inkscape.org/namespaces/inkscape"
   width="84.0999984741211"
   height="57.599998474121094"
   style=""
   version="1.1"
   id="svg3749"
   sodipodi:docname="vectorpaint.svg"
   inkscape:version="0.92.4 (5da689c313, 2019-01-14)">
  <metadata
     id="metadata3755">
    <rdf:RDF>
      <cc:Work
         rdf:about="">
        <dc:format>image/svg+xml</dc:format>
        <dc:type
           rdf:resource="http://purl.org/dc/dcmitype/StillImage" />
      </cc:Work>
    </rdf:RDF>
  </metadata>
  <defs
     id="defs3753" />
  <sodipodi:namedview
     pagecolor="#ffffff"
     bordercolor="#666666"
     borderopacity="1"
     objecttolerance="10"
     gridtolerance="10"
     guidetolerance="10"
     inkscape:pageopacity="0"
     inkscape:pageshadow="2"
     inkscape:window-width="944"
     inkscape:window-height="712"
     id="namedview3751"
     showgrid="false"
     inkscape:zoom="4.7294598"
     inkscape:cx="40.904152"
     inkscape:cy="38.108029"
     inkscape:window-x="897"
     inkscape:window-y="246"
     inkscape:window-maximized="0"
     inkscape:current-layer="g3747" />
  <rect
     id="backgroundrect"
     width="100%"
     height="100%"
     x="0"
     y="0"
     fill="none"
     stroke="none" />
  <g
     class="currentLayer"
     id="g3747"
     style="">
    <title
       id="title3736">Layer 1</title>
    <path
       d="M 77.78581,26.702823 C 77.212621,26.118486 69.856691,16.671709 68.614781,15.113478 67.277339,13.555247 66.70415,13.847415 65.844366,13.944805 c -0.859784,0.09739 -10.126344,1.75301 -11.177191,1.850399 -1.050847,0.194779 -1.719568,0.584337 -1.050847,1.558232 0.573189,0.876505 6.687208,9.641556 8.02465,11.686734 L 37.280433,34.980927 17.983059,1.9659018 C 17.218807,0.7972284 17.027744,0.4076705 15.308176,0.50506 13.588608,0.6024495 0.1186593,1.7711229 -0.8366562,1.7711229 -1.7919717,1.8685124 -2.8428188,2.2580702 -1.8875033,4.5954171 -0.9321878,6.932764 14.35286,40.434736 14.734987,41.408631 15.117113,42.382525 2.9427309,54.089908 5.5220829,53.505571 8.1969669,52.823845 30.688756,40.239957 35.751928,38.876505 c 2.674883,4.869473 8.02465,14.803197 9.075497,16.264039 1.337442,1.947789 2.292757,1.558231 4.29892,0.973894 1.624036,-0.486947 25.029266,-9.057219 26.080113,-9.544166 1.050847,-0.486947 1.719568,-0.779116 0.955316,-1.8504 -0.57319,-0.779115 -6.687209,-9.251998 -9.935282,-13.634523 2.197226,-0.584337 10.126345,-2.726905 10.986129,-3.019073 0.955315,-0.292169 1.146378,-0.779116 0.573189,-1.363453 z m -44.231108,9.251998 c -0.286595,0.09739 -13.947606,3.408631 -14.616327,3.60341 -0.764253,0.194779 -0.764253,0.09739 -0.764253,-0.194779 C 17.983059,39.071284 1.9337588,5.1797538 1.6471641,4.790196 c -0.1910631,-0.3895578 -0.1910631,-0.7791157 0,-0.7791157 0.1910631,0 12.8967589,-1.1686734 13.2788859,-1.1686734 0.477657,0 0.382126,0.097389 0.573189,0.3895578 0,0 17.8644,31.4567933 18.150995,31.9437413 0.382126,0.486947 0.191063,0.681726 -0.09553,0.779115 z m 38.403683,7.304209 c 0.191064,0.389558 0.477658,0.584337 -0.286594,0.779116 -0.668721,0.292168 -23.023104,7.985935 -23.500762,8.180714 -0.477657,0.194779 -0.764252,0.292169 -1.337441,-0.584337 C 46.260398,50.758018 39,38 39,38 l 23.787357,-6.330315 c 0.573189,-0.194779 0.764252,-0.292168 1.146378,0.292169 0.382126,0.681726 7.833587,11.005008 8.02465,11.297176 z M 73.48689,26.118486 c -0.573189,0.09739 -9.26656,2.337347 -9.26656,2.337347 l -7.164866,-9.933724 c -0.191064,-0.292168 -0.382127,-0.584337 0.09553,-0.681726 0.477658,-0.09739 8.59784,-1.558231 8.979966,-1.655621 0.382126,-0.09739 0.668721,-0.194779 1.146378,0.486947 0.477658,0.584337 6.591677,8.570272 6.878272,8.862441 0.286595,0.292168 -0.09553,0.486947 -0.668721,0.584336 z"
       id="svg_1"
       class="selected"
       inkscape:connector-curvature="0"
       style="fill:#fb503b"
       sodipodi:nodetypes="scscccccscssccccscccsccccssccccccscccccccccscccc" />
    <rect
       stroke-dashoffset=""
       id="svg_2"
       x="26"
       y="23"
       width="13"
       height="15"
       style="color:#000000;fill:#fb503b;fill-rule:nonzero" />
    <rect
       stroke-dashoffset=""
       id="svg_4"
       x="75"
       y="-34"
       width="0"
       height="1"
       style="color: rgb(0, 0, 0);"
       fill-rule="nonzero"
       fill="#FB503B" />
    <rect
       stroke-dashoffset=""
       id="svg_6"
       x="-71.208466"
       y="8.7241573"
       width="18.808046"
       height="37.624149"
       style="color:#000000;fill:#fb503b;fill-rule:nonzero;stroke-width:1.46436119"
       transform="scale(-1,1)" />
    <rect
       stroke-dashoffset=""
       id="svg_8"
       x="-57.487282"
       y="1.7987325"
       width="13.858047"
       height="33"
       style="color:#000000;fill:#fb503b;fill-rule:nonzero;stroke-width:2.63230395"
       transform="scale(-1,1)" />
    <rect
       stroke-dashoffset=""
       id="svg_10"
       x="23"
       y="51"
       width="28"
       height="5"
       style="color: rgb(0, 0, 0);"
       fill-rule="nonzero"
       fill="#FB503B" />
    <rect
       stroke-dashoffset=""
       id="svg_12"
       x="24"
       y="-1"
       width="2"
       height="39"
       style="color: rgb(0, 0, 0);"
       fill-rule="nonzero"
       fill="#FB503B" />
  </g>
</svg>
